<svg xmlns="http://www.w3.org/2000/svg" xmlns:xlink="http://www.w3.org/1999/xlink" width="500" zoomAndPan="magnify" viewBox="0 0 375 374.999991" height="500" preserveAspectRatio="xMidYMid meet" version="1.0"><defs><g/></defs><g fill="#ffffff" fill-opacity="1"><g transform="translate(4.339821, 204.749987)"><g><path d="M 60.140625 -45.191406 L 60.140625 -48.632812 L 52.90625 -48.632812 L 52.90625 -53.59375 L 58.003906 -53.59375 L 58.003906 -54.351562 C 58.003906 -56.554688 56.695312 -56.761719 56.074219 -56.761719 L 49.945312 -56.761719 C 49.390625 -56.761719 48.015625 -56.554688 48.015625 -54.351562 L 48.015625 -53.59375 L 42.917969 -53.59375 L 42.917969 -48.632812 L 46.84375 -48.632812 L 46.84375 -45.191406 L 36.992188 -45.191406 L 36.992188 -40.230469 L 47.394531 -40.230469 L 47.394531 -27.484375 L 43.742188 -27.484375 L 43.742188 -25.832031 L 44.292969 -25.832031 L 44.292969 -17.703125 L 42.226562 -17.703125 L 42.226562 -12.949219 C 42.226562 -12.882812 42.226562 -12.882812 42.226562 -12.8125 L 41.882812 -12.8125 C 41.816406 -12.8125 41.816406 -12.8125 41.675781 -13.019531 L 39.058594 -17.703125 L 41.125 -17.703125 L 36.578125 -25.832031 L 41.058594 -25.832031 L 40.160156 -27.484375 L 38.714844 -27.484375 L 31.550781 -40.230469 L 26.796875 -40.230469 L 23.972656 -45.191406 L 28.242188 -45.191406 L 26.316406 -48.632812 L 22.386719 -48.632812 L 20.597656 -51.734375 C 20.253906 -52.492188 19.910156 -53.042969 19.5625 -53.59375 L 24.660156 -53.59375 C 24.523438 -53.800781 24.386719 -54.007812 24.25 -54.214844 C 23.765625 -54.902344 23.285156 -55.453125 22.734375 -55.800781 C 22.183594 -56.210938 21.5625 -56.488281 20.871094 -56.625 C 20.183594 -56.695312 19.355469 -56.761719 18.394531 -56.761719 L 13.296875 -56.761719 C 11.296875 -56.761719 9.78125 -56.074219 8.816406 -54.835938 C 8.542969 -54.488281 8.335938 -54.078125 8.128906 -53.59375 L 3.03125 -53.59375 C 2.550781 -52.421875 2.34375 -50.769531 2.273438 -48.632812 L 6.199219 -48.632812 C 6.199219 -48.359375 6.199219 -48.152344 6.199219 -47.875 L 6.199219 -45.191406 L 1.929688 -45.191406 L 1.929688 -40.230469 L 6.683594 -40.230469 L 6.683594 -27.484375 L 2.34375 -27.484375 L 2.34375 -25.832031 L 3.652344 -25.832031 L 3.652344 -17.703125 L 1.378906 -17.703125 L 1.378906 -12.746094 L 7.507812 -12.746094 L 7.507812 -5.167969 L 2.6875 -5.167969 L 2.6875 -3.511719 L 8.265625 -3.511719 L 8.265625 -2.34375 C 8.265625 -0.207031 9.644531 0.0703125 10.265625 0.0703125 L 16.394531 0.0703125 C 16.945312 0.0703125 18.324219 -0.207031 18.324219 -2.34375 L 18.324219 -3.511719 L 12.746094 -3.511719 L 12.746094 -5.167969 L 17.566406 -5.167969 L 17.566406 -17.703125 L 13.707031 -17.703125 L 13.707031 -25.832031 L 21.769531 -25.832031 L 21.769531 -27.484375 L 16.738281 -27.484375 L 16.738281 -40.230469 L 19.21875 -40.230469 L 26.382812 -27.484375 L 27.832031 -27.484375 L 28.796875 -25.832031 L 24.316406 -25.832031 L 28.863281 -17.703125 L 26.796875 -17.703125 L 29.554688 -12.746094 L 36.027344 -12.746094 L 40.300781 -5.167969 L 31.414062 -5.167969 L 31.550781 -4.960938 C 31.894531 -4.410156 32.238281 -3.925781 32.515625 -3.511719 L 36.371094 -3.511719 C 36.648438 -3.101562 36.921875 -2.6875 37.128906 -2.410156 C 37.613281 -1.722656 38.09375 -1.238281 38.644531 -0.894531 C 39.195312 -0.480469 39.816406 -0.277344 40.503906 -0.136719 C 41.125 0 41.953125 0.0703125 42.847656 0.0703125 L 47.875 0.0703125 C 49.875 0.0703125 51.390625 -0.621094 52.355469 -1.929688 C 52.699219 -2.34375 52.90625 -2.894531 53.113281 -3.511719 L 52.355469 -3.511719 C 52.5625 -3.996094 52.699219 -4.546875 52.835938 -5.167969 L 58.417969 -5.167969 C 58.625 -6.199219 58.691406 -7.441406 58.691406 -8.816406 L 58.691406 -12.746094 L 52.214844 -12.746094 L 52.214844 -17.703125 L 54.285156 -17.703125 L 54.285156 -25.832031 L 60.070312 -25.832031 L 60.070312 -27.484375 L 57.3125 -27.484375 L 57.3125 -40.230469 L 52.5625 -40.230469 L 52.5625 -45.191406 Z M 35.820312 -51.527344 L 25.765625 -51.527344 L 25.765625 -52.421875 L 35.820312 -52.421875 Z M 30.792969 -7.992188 L 21.148438 -7.992188 L 21.148438 -8.75 L 30.792969 -8.75 Z M 41.402344 -46.707031 L 31.757812 -46.707031 L 31.757812 -47.464844 L 41.402344 -47.464844 Z M 41.402344 -46.707031 "/></g></g></g><g fill="#ffffff" fill-opacity="1"><g transform="translate(69.503024, 204.749987)"><g><path d="M 57.726562 -35.613281 L 57.726562 -45.398438 L 52.628906 -45.398438 L 52.628906 -47.050781 L 56.488281 -47.050781 L 56.488281 -50.90625 L 52.628906 -50.90625 L 52.628906 -54.421875 C 52.628906 -56.554688 51.320312 -56.761719 50.703125 -56.761719 L 44.363281 -56.761719 C 43.8125 -56.761719 42.433594 -56.554688 42.433594 -54.421875 L 42.433594 -50.90625 L 46.222656 -50.90625 L 46.222656 -47.050781 L 42.433594 -47.050781 L 42.433594 -45.398438 L 47.53125 -45.398438 L 47.53125 -35.613281 L 42.433594 -35.613281 L 42.433594 -30.65625 L 46.222656 -30.65625 L 46.222656 -23.078125 L 43.675781 -23.078125 L 43.675781 -21.355469 L 46.222656 -21.355469 L 46.222656 -20.460938 C 46.222656 -18.875 46.15625 -17.566406 46.085938 -16.394531 L 42.226562 -16.394531 C 42.226562 -15.980469 42.160156 -15.636719 42.089844 -15.292969 C 41.882812 -13.984375 41.46875 -12.949219 40.988281 -12.191406 C 40.78125 -11.917969 40.574219 -11.710938 40.300781 -11.503906 L 42.847656 -11.503906 C 42.847656 -11.503906 42.847656 -11.433594 42.777344 -11.433594 L 45.328125 -11.433594 C 44.984375 -11.089844 44.5 -10.882812 44.019531 -10.675781 C 43.054688 -10.402344 41.882812 -10.195312 40.4375 -10.195312 L 25.558594 -10.195312 C 24.109375 -10.195312 22.871094 -10.402344 21.976562 -10.675781 C 21.425781 -10.882812 21.011719 -11.089844 20.667969 -11.433594 L 18.117188 -11.433594 C 18.046875 -11.433594 18.046875 -11.503906 18.046875 -11.503906 L 15.5 -11.503906 C 15.222656 -11.710938 15.015625 -11.917969 14.8125 -12.191406 C 14.328125 -12.949219 13.914062 -13.984375 13.707031 -15.292969 C 13.640625 -15.636719 13.570312 -15.980469 13.5 -16.394531 L 17.359375 -16.394531 C 17.222656 -17.566406 17.152344 -18.875 17.152344 -20.460938 L 17.152344 -21.355469 L 21.699219 -21.355469 L 21.699219 -23.078125 L 17.152344 -23.078125 L 17.152344 -30.65625 L 13.296875 -30.65625 L 13.296875 -35.613281 L 18.394531 -35.613281 L 18.394531 -45.398438 L 29.691406 -45.398438 L 29.691406 -47.050781 L 17.152344 -47.050781 L 17.152344 -50.90625 L 13.296875 -50.90625 L 13.296875 -54.421875 C 13.296875 -56.554688 11.988281 -56.761719 11.367188 -56.761719 L 5.097656 -56.761719 C 4.476562 -56.761719 3.101562 -56.554688 3.101562 -54.421875 L 3.101562 -50.90625 L 6.890625 -50.90625 L 6.890625 -47.050781 L 3.101562 -47.050781 L 3.101562 -45.398438 L 8.199219 -45.398438 L 8.199219 -35.613281 L 3.101562 -35.613281 L 3.101562 -30.65625 L 6.890625 -30.65625 L 6.890625 -23.078125 L 4.339844 -23.078125 L 4.339844 -21.5625 C 4.339844 -21.492188 4.339844 -21.425781 4.410156 -21.355469 L 6.890625 -21.355469 C 6.890625 -19.632812 7.027344 -17.980469 7.09375 -16.394531 L 3.304688 -16.394531 C 3.445312 -14.671875 3.71875 -13.089844 3.996094 -11.710938 C 4.0625 -11.640625 4.0625 -11.574219 4.0625 -11.503906 L 6.613281 -11.503906 C 6.613281 -11.503906 6.613281 -11.433594 6.613281 -11.433594 L 9.160156 -11.433594 C 9.644531 -9.574219 10.265625 -7.992188 11.023438 -6.542969 L 7.234375 -6.542969 C 7.507812 -5.992188 7.851562 -5.441406 8.265625 -4.960938 C 9.4375 -3.511719 10.882812 -2.410156 12.539062 -1.585938 L 16.328125 -1.585938 C 16.671875 -1.445312 17.085938 -1.238281 17.429688 -1.101562 C 19.5625 -0.34375 22.183594 0 25.210938 0 L 40.710938 0 C 43.742188 0 46.359375 -0.34375 48.496094 -1.101562 C 48.910156 -1.238281 49.253906 -1.445312 49.597656 -1.585938 L 45.808594 -1.585938 C 47.464844 -2.410156 48.910156 -3.511719 50.082031 -4.960938 C 50.496094 -5.441406 50.839844 -5.992188 51.113281 -6.542969 L 54.972656 -6.542969 C 55.730469 -7.992188 56.351562 -9.574219 56.761719 -11.433594 L 54.214844 -11.433594 C 54.214844 -11.433594 54.214844 -11.503906 54.214844 -11.503906 L 51.664062 -11.503906 C 51.734375 -11.574219 51.734375 -11.640625 51.734375 -11.710938 C 52.078125 -13.089844 52.285156 -14.671875 52.421875 -16.394531 L 56.28125 -16.394531 C 56.351562 -17.980469 56.488281 -19.632812 56.488281 -21.355469 L 53.9375 -21.355469 C 53.9375 -21.425781 53.9375 -21.492188 53.9375 -21.5625 L 53.9375 -23.078125 L 56.488281 -23.078125 L 56.488281 -30.65625 L 52.628906 -30.65625 L 52.628906 -35.613281 Z M 29.621094 -30.585938 L 19.632812 -30.585938 L 19.632812 -32.378906 L 29.621094 -32.378906 Z M 40.851562 -18.1875 L 29.484375 -18.1875 L 29.484375 -19.5625 L 40.851562 -19.5625 Z M 40.851562 -38.027344 L 28.039062 -38.027344 L 28.039062 -40.300781 L 40.851562 -40.300781 Z M 40.851562 -38.027344 "/></g></g></g><g fill="#ffffff" fill-opacity="1"><g transform="translate(133.495223, 204.749987)"><g><path d="M 49.046875 -3.652344 L 49.046875 -7.785156 C 49.046875 -9.917969 47.671875 -10.195312 47.117188 -10.195312 L 24.730469 -10.195312 C 23.285156 -10.195312 22.042969 -10.332031 21.148438 -10.675781 L 17.636719 -10.675781 C 16.808594 -10.953125 16.121094 -11.503906 15.636719 -12.191406 C 15.085938 -12.949219 14.742188 -13.984375 14.464844 -15.222656 C 14.464844 -15.222656 14.464844 -15.222656 14.464844 -15.292969 L 17.496094 -15.292969 C 17.289062 -16.601562 17.152344 -18.324219 17.152344 -20.390625 L 17.152344 -22.734375 L 23.214844 -22.734375 L 23.214844 -24.25 L 17.359375 -24.25 L 17.359375 -35.960938 L 14.464844 -35.960938 L 14.464844 -40.574219 L 26.933594 -40.574219 L 26.933594 -43.675781 L 15.429688 -43.675781 L 15.429688 -48.289062 L 17.359375 -48.289062 L 17.359375 -52.835938 L 13.847656 -52.835938 L 13.847656 -54.351562 C 13.847656 -56.554688 12.46875 -56.761719 11.917969 -56.761719 L 5.578125 -56.761719 C 4.960938 -56.761719 3.582031 -56.554688 3.582031 -54.351562 L 3.582031 -52.835938 L 7.164062 -52.835938 L 7.164062 -48.289062 L 1.101562 -48.289062 L 1.101562 -43.675781 L 6.40625 -43.675781 L 6.40625 -40.574219 L 4.203125 -40.574219 L 4.203125 -35.960938 L 7.164062 -35.960938 L 7.164062 -24.25 L 3.71875 -24.25 L 3.71875 -22.734375 L 6.957031 -22.734375 L 6.957031 -21.5625 C 6.957031 -19.21875 7.09375 -17.152344 7.300781 -15.292969 L 4.203125 -15.292969 C 4.410156 -13.984375 4.546875 -12.746094 4.820312 -11.710938 C 4.890625 -11.296875 5.027344 -11.023438 5.097656 -10.675781 L 8.542969 -10.675781 C 9.160156 -8.402344 10.058594 -6.40625 11.296875 -4.960938 C 11.640625 -4.476562 11.988281 -4.0625 12.398438 -3.652344 L 5.785156 -3.652344 C 6.40625 -3.101562 7.09375 -2.617188 7.851562 -2.136719 L 16.121094 -2.136719 C 16.808594 -1.722656 17.496094 -1.378906 18.253906 -1.101562 C 20.390625 -0.34375 23.007812 0.0703125 25.96875 0.0703125 L 48.773438 0.0703125 C 49.324219 0.0703125 50.5625 -0.207031 50.632812 -2.136719 L 52.699219 -2.136719 C 52.699219 -2.203125 52.699219 -2.273438 52.699219 -2.34375 L 52.699219 -3.652344 Z M 36.097656 -26.660156 L 26.039062 -26.660156 L 26.039062 -27.554688 L 36.097656 -27.554688 Z M 32.859375 -14.878906 L 18.394531 -14.878906 L 18.394531 -15.636719 L 32.859375 -15.636719 Z M 35.0625 -48.359375 L 20.941406 -48.359375 L 20.941406 -49.738281 L 35.0625 -49.738281 Z M 35.0625 -48.359375 "/></g></g></g><g fill="#ffffff" fill-opacity="1"><g transform="translate(189.634772, 204.749987)"><g><path d="M 49.046875 -3.652344 L 49.046875 -7.785156 C 49.046875 -9.917969 47.671875 -10.195312 47.117188 -10.195312 L 24.730469 -10.195312 C 23.285156 -10.195312 22.042969 -10.332031 21.148438 -10.675781 L 17.636719 -10.675781 C 16.808594 -10.953125 16.121094 -11.503906 15.636719 -12.191406 C 15.085938 -12.949219 14.742188 -13.984375 14.464844 -15.222656 C 14.464844 -15.222656 14.464844 -15.222656 14.464844 -15.292969 L 17.496094 -15.292969 C 17.289062 -16.601562 17.152344 -18.324219 17.152344 -20.390625 L 17.152344 -22.734375 L 23.214844 -22.734375 L 23.214844 -24.25 L 17.359375 -24.25 L 17.359375 -35.960938 L 14.464844 -35.960938 L 14.464844 -40.574219 L 26.933594 -40.574219 L 26.933594 -43.675781 L 15.429688 -43.675781 L 15.429688 -48.289062 L 17.359375 -48.289062 L 17.359375 -52.835938 L 13.847656 -52.835938 L 13.847656 -54.351562 C 13.847656 -56.554688 12.46875 -56.761719 11.917969 -56.761719 L 5.578125 -56.761719 C 4.960938 -56.761719 3.582031 -56.554688 3.582031 -54.351562 L 3.582031 -52.835938 L 7.164062 -52.835938 L 7.164062 -48.289062 L 1.101562 -48.289062 L 1.101562 -43.675781 L 6.40625 -43.675781 L 6.40625 -40.574219 L 4.203125 -40.574219 L 4.203125 -35.960938 L 7.164062 -35.960938 L 7.164062 -24.25 L 3.71875 -24.25 L 3.71875 -22.734375 L 6.957031 -22.734375 L 6.957031 -21.5625 C 6.957031 -19.21875 7.09375 -17.152344 7.300781 -15.292969 L 4.203125 -15.292969 C 4.410156 -13.984375 4.546875 -12.746094 4.820312 -11.710938 C 4.890625 -11.296875 5.027344 -11.023438 5.097656 -10.675781 L 8.542969 -10.675781 C 9.160156 -8.402344 10.058594 -6.40625 11.296875 -4.960938 C 11.640625 -4.476562 11.988281 -4.0625 12.398438 -3.652344 L 5.785156 -3.652344 C 6.40625 -3.101562 7.09375 -2.617188 7.851562 -2.136719 L 16.121094 -2.136719 C 16.808594 -1.722656 17.496094 -1.378906 18.253906 -1.101562 C 20.390625 -0.34375 23.007812 0.0703125 25.96875 0.0703125 L 48.773438 0.0703125 C 49.324219 0.0703125 50.5625 -0.207031 50.632812 -2.136719 L 52.699219 -2.136719 C 52.699219 -2.203125 52.699219 -2.273438 52.699219 -2.34375 L 52.699219 -3.652344 Z M 36.097656 -26.660156 L 26.039062 -26.660156 L 26.039062 -27.554688 L 36.097656 -27.554688 Z M 32.859375 -14.878906 L 18.394531 -14.878906 L 18.394531 -15.636719 L 32.859375 -15.636719 Z M 35.0625 -48.359375 L 20.941406 -48.359375 L 20.941406 -49.738281 L 35.0625 -49.738281 Z M 35.0625 -48.359375 "/></g></g></g><g fill="#ffffff" fill-opacity="1"><g transform="translate(245.774321, 204.749987)"><g/></g></g><g fill="#ffffff" fill-opacity="1"><g transform="translate(284.624263, 204.749987)"><g><path d="M 50.839844 -38.4375 C 50.839844 -38.992188 50.839844 -39.542969 50.839844 -40.09375 C 50.839844 -42.296875 50.703125 -44.292969 50.355469 -46.085938 L 53.320312 -46.085938 C 53.25 -46.636719 53.113281 -47.1875 52.972656 -47.738281 L 48.566406 -47.738281 C 48.082031 -49.53125 47.394531 -51.113281 46.429688 -52.355469 C 46.359375 -52.492188 46.292969 -52.5625 46.15625 -52.699219 L 51.320312 -52.699219 C 49.1875 -55.386719 45.878906 -56.761719 41.402344 -56.761719 L 9.644531 -56.761719 C 9.023438 -56.761719 7.648438 -56.554688 7.648438 -54.351562 L 7.648438 -52.699219 L 2.550781 -52.699219 L 2.550781 -48.910156 C 2.550781 -48.429688 2.617188 -48.015625 2.753906 -47.738281 L 9.851562 -47.738281 C 10.265625 -46.707031 11.160156 -46.566406 11.640625 -46.566406 L 41.609375 -46.566406 C 42.574219 -46.566406 43.398438 -46.359375 44.019531 -46.085938 L 38.300781 -46.085938 C 38.851562 -45.808594 39.265625 -45.535156 39.542969 -45.050781 C 40.300781 -44.019531 40.644531 -42.367188 40.644531 -40.09375 C 40.644531 -39.472656 40.644531 -38.992188 40.574219 -38.4375 L 47.050781 -38.4375 C 46.914062 -36.992188 46.566406 -35.890625 46.015625 -35.132812 C 45.328125 -34.097656 44.089844 -33.617188 42.367188 -33.617188 L 12.332031 -33.617188 C 12.125 -33.617188 11.847656 -33.617188 11.574219 -33.480469 L 7.164062 -33.480469 C 6.613281 -33.273438 5.992188 -32.652344 5.992188 -31.273438 L 5.992188 -25.351562 L 0.34375 -25.351562 L 0.34375 -23.699219 L 8.679688 -23.699219 L 8.679688 -11.023438 L 6.820312 -11.023438 L 6.820312 -6.0625 L -0.964844 -6.0625 L -0.964844 -2.617188 L 7.648438 -2.617188 L 7.648438 -2.34375 C 7.648438 -0.207031 9.023438 0.0703125 9.644531 0.0703125 L 15.914062 0.0703125 C 16.53125 0.0703125 17.84375 -0.207031 17.84375 -2.34375 L 17.84375 -2.617188 L 16.1875 -2.617188 L 16.1875 -6.0625 L 21.976562 -6.0625 L 21.976562 -11.023438 L 18.875 -11.023438 L 18.875 -23.421875 L 42.433594 -23.492188 C 43.605469 -23.492188 44.640625 -23.558594 45.605469 -23.699219 L 40.710938 -23.699219 C 42.433594 -24.042969 43.882812 -24.59375 45.121094 -25.351562 L 47.324219 -25.351562 C 48.359375 -26.039062 49.1875 -26.867188 49.945312 -27.832031 C 50.976562 -29.347656 51.734375 -31.273438 52.285156 -33.480469 L 54.285156 -33.480469 C 54.558594 -34.996094 54.835938 -36.648438 54.902344 -38.4375 Z M 22.59375 -41.402344 L 8.058594 -41.402344 L 8.058594 -43.191406 L 22.59375 -43.191406 Z M 35.476562 -37.0625 L 24.386719 -37.0625 L 24.386719 -38.4375 L 35.476562 -38.4375 Z M 41.402344 -14.535156 L 23.835938 -14.535156 L 23.835938 -15.914062 L 41.402344 -15.914062 Z M 31.621094 -19.703125 L 18.875 -19.703125 L 18.875 -20.597656 L 31.621094 -20.597656 Z M 31.621094 -19.703125 "/></g></g></g><g fill="#ffffff" fill-opacity="1"><g transform="translate(345.998901, 204.749987)"><g><path d="M 24.523438 -43.261719 L 18.117188 -43.261719 L 18.117188 -43.949219 L 24.523438 -43.949219 Z M 5.511719 -6.613281 L 0.894531 -6.613281 L 0.894531 -7.300781 L 5.511719 -7.300781 Z M 16.738281 -40.503906 L 16.738281 -47.050781 L 23.628906 -47.050781 L 23.628906 -48.496094 L 14.742188 -48.496094 L 14.742188 -52.769531 L 19.910156 -52.769531 L 19.910156 -54.351562 C 19.910156 -56.488281 18.394531 -56.761719 17.703125 -56.761719 L 10.402344 -56.761719 C 9.714844 -56.761719 8.128906 -56.488281 8.128906 -54.351562 L 8.128906 -52.769531 L 4.546875 -52.769531 L 4.546875 -48.496094 L 9.644531 -48.496094 L 9.644531 -47.050781 L 6.542969 -47.050781 L 6.542969 -40.503906 L 3.859375 -40.503906 L 3.859375 -36.234375 L 8.886719 -36.234375 L 8.886719 -29.207031 L 3.03125 -29.207031 L 3.03125 -27.761719 L 5.304688 -27.761719 L 5.304688 -16.808594 L 7.714844 -16.808594 L 7.714844 -12.539062 L 5.304688 -12.539062 L 5.304688 -9.574219 L 8.335938 -9.574219 L 8.335938 -5.304688 L 5.648438 -5.304688 L 5.648438 -2.34375 C 5.648438 -0.207031 7.027344 0.0703125 7.648438 0.0703125 L 13.984375 0.0703125 C 14.535156 0.0703125 15.914062 -0.207031 15.914062 -2.34375 L 15.914062 -5.304688 L 18.53125 -5.304688 L 18.53125 -9.574219 L 15.5 -9.574219 L 15.5 -12.539062 L 17.910156 -12.539062 L 17.910156 -16.808594 L 15.5 -16.808594 L 15.5 -27.761719 L 21.769531 -27.761719 L 21.769531 -29.207031 L 19.082031 -29.207031 L 19.082031 -36.234375 L 14.054688 -36.234375 L 14.054688 -40.503906 Z M 16.738281 -40.503906 "/></g></g></g></svg>